<svg aria-hidden="true" style="position: absolute; width: 0; height: 0; overflow: hidden;" version="1.1" xmlns="http://www.w3.org/2000/svg" xmlns:xlink="http://www.w3.org/1999/xlink">
<defs>
<symbol id="icon-Vector-order" viewBox="0 0 30 32">
<path d="M29.867 4.588l-4.425-4.425v22.123l-22.123-22.123-3.319 3.319 22.124 22.123h-22.124l4.425 4.425h25.442v-25.442z"></path>
</symbol>
<symbol id="icon-vector-1" viewBox="0 0 32 32">
<path fill="#ae1332" style="fill: var(--color1, #ae1332)" d="M29.092 0.314h-4.011c-0.006-0-0.013-0-0.020-0-1.218 0-2.207 0.981-2.221 2.196v3.931c0.014 1.216 1.003 2.197 2.221 2.197 0.007 0 0.014-0 0.021-0h4.010c0.006 0 0.013 0 0.020 0 1.218 0 2.207-0.981 2.221-2.196v-3.931c-0.014-1.216-1.003-2.197-2.221-2.197-0.007 0-0.014 0-0.021 0h0.001zM6.732 23.048h-4.32c-1.332 0-2.413 0.984-2.413 2.197v3.929c0 1.214 1.080 2.197 2.413 2.197h4.322c1.33 0 2.411-0.982 2.411-2.197v-3.929c0-1.214-1.080-2.197-2.413-2.197zM6.252 11.584h-4.011c-1.238 0-2.241 0.986-2.241 2.201v3.929c0.014 1.216 1.003 2.197 2.221 2.197 0.007 0 0.014-0 0.021-0h4.010c0.006 0 0.013 0 0.020 0 1.218 0 2.207-0.981 2.221-2.196v-3.931c0-1.214-1.004-2.197-2.241-2.197zM17.772 22.988h-4.011c-1.236 0-2.241 0.98-2.241 2.195v3.929c0.014 1.216 1.003 2.197 2.221 2.197 0.007 0 0.014-0 0.021-0h4.010c0.006 0 0.013 0 0.020 0 1.218 0 2.207-0.981 2.221-2.196v-3.931c-0.014-1.216-1.003-2.197-2.221-2.197-0.007 0-0.014 0-0.021 0h0.001zM6.252 0.086h-4.011c-1.238 0-2.241 0.984-2.241 2.197v3.929c0.014 1.216 1.003 2.197 2.221 2.197 0.007 0 0.014-0 0.021-0h4.010c0.006 0 0.013 0 0.020 0 1.218 0 2.207-0.981 2.221-2.196v-3.931c0-1.212-1.004-2.197-2.241-2.197zM18.082 11.702h-4.011c-1.236 0-2.241 0.982-2.241 2.195v3.931c0.014 1.216 1.003 2.197 2.221 2.197 0.007 0 0.014-0 0.021-0h4.010c1.238 0 2.241-0.984 2.241-2.197v-3.931c0-1.212-1.002-2.195-2.241-2.195zM29.344 22.988h-4.011c-1.238 0-2.241 0.98-2.241 2.195v3.929c0.014 1.216 1.003 2.197 2.221 2.197 0.007 0 0.014-0 0.021-0h4.010c0.006 0 0.013 0 0.020 0 1.218 0 2.207-0.981 2.221-2.196v-3.931c0-1.214-1.004-2.197-2.241-2.197zM17.596 0.224h-4.009c-1.238 0-2.241 0.982-2.241 2.197v3.929c0.014 1.216 1.003 2.197 2.221 2.197 0.007 0 0.014-0 0.021-0h4.008c0.006 0 0.013 0 0.020 0 1.218 0 2.207-0.981 2.221-2.196v-3.931c0-1.214-1.002-2.197-2.241-2.197zM29.054 11.93h-4.011c-1.236 0-2.241 0.982-2.241 2.197v3.929c0.014 1.216 1.003 2.197 2.221 2.197 0.007 0 0.014-0 0.021-0h4.010c0.006 0 0.013 0 0.020 0 1.218 0 2.207-0.981 2.221-2.196v-3.931c0-1.214-1.004-2.197-2.241-2.197z"></path>
</symbol>
<symbol id="icon-uil-cart" viewBox="0 0 32 32">
<path fill="#ae1332" style="fill: var(--color1, #ae1332)" d="M25.341 9.336h-4.001v-1.334c0-2.947-2.389-5.335-5.335-5.335s-5.335 2.389-5.335 5.335v0 1.334h-4.001c-0.736 0.001-1.332 0.597-1.333 1.333v14.671c0 2.21 1.791 4.001 4.001 4.001v0h13.336c2.21 0 4.001-1.791 4.001-4.001v0-14.671c-0.001-0.736-0.597-1.332-1.333-1.333h-0zM13.337 8.002c0-1.473 1.194-2.667 2.667-2.667s2.667 1.194 2.667 2.667v1.334h-5.334v-1.334zM24.006 25.341c0 0.736-0.597 1.333-1.333 1.333-0 0-0.001 0-0.001 0h-13.336c-0.736 0-1.333-0.597-1.334-1.333v-13.337h2.667v1.334c0 0.737 0.597 1.334 1.334 1.334s1.334-0.597 1.334-1.334v0-1.334h5.334v1.334c0 0.737 0.597 1.334 1.334 1.334s1.334-0.597 1.334-1.334v0-1.334h2.667v13.337z"></path>
</symbol>
<symbol id="icon-Facebook" viewBox="0 0 32 32">
<path fill="#ae1332" style="fill: var(--color1, #ae1332)" d="M19.52 4.64c0.24 0 0.48 0 0.96 0v3.6c-0.24 0-0.72 0-1.2 0s-0.96 0-1.2 0.24c-0.24 0.24-0.24 0.48-0.24 1.040 0 0.48 0 0.8 0 1.28h2.64v3.040h-2.64v13.2h-4.080v-13.28h-2.16v-3.040h2.16v-1.040c0-1.76 0.24-3.040 0.72-3.6 0.72-1.040 2.16-1.52 4.32-1.52 0.24 0.080 0.48 0.080 0.72 0.080z"></path>
</symbol>
<symbol id="icon-instagram" viewBox="0 0 32 32">
<path fill="#ae1332" style="fill: var(--color1, #ae1332)" opacity="0.8" d="M28.718 10.756c-0.016-1.074-0.215-2.14-0.596-3.145-0.667-1.716-2.024-3.073-3.743-3.737-0.994-0.373-2.044-0.573-3.108-0.596-1.368-0.061-1.801-0.078-5.273-0.078s-3.916 0-5.274 0.078c-1.062 0.023-2.113 0.223-3.106 0.596-1.719 0.664-3.078 2.021-3.743 3.737-0.374 0.992-0.576 2.041-0.596 3.101-0.061 1.367-0.080 1.8-0.080 5.265s0 3.909 0.080 5.265c0.021 1.062 0.222 2.109 0.596 3.104 0.667 1.714 2.024 3.071 3.744 3.735 0.989 0.386 2.040 0.605 3.106 0.639 1.369 0.061 1.803 0.080 5.274 0.080s3.916 0 5.274-0.080c1.062-0.021 2.112-0.221 3.108-0.595 1.719-0.666 3.076-2.022 3.743-3.737 0.374-0.994 0.574-2.041 0.596-3.104 0.061-1.365 0.080-1.798 0.080-5.265-0.003-3.466-0.003-3.906-0.082-5.264zM15.99 22.531c-3.631 0-6.572-2.936-6.572-6.561s2.941-6.561 6.572-6.561c3.628 0 6.572 2.936 6.572 6.561s-2.944 6.561-6.572 6.561zM22.824 10.696c-0.849 0-1.532-0.684-1.532-1.53s0.684-1.53 1.532-1.53c0.846 0 1.531 0.684 1.531 1.53s-0.685 1.53-1.531 1.53z"></path>
<path fill="#ae1332" style="fill: var(--color1, #ae1332)" opacity="0.8" d="M15.992 19.976c2.211 0 4.004-1.793 4.004-4.004s-1.793-4.004-4.004-4.004c-2.211 0-4.004 1.793-4.004 4.004s1.793 4.004 4.004 4.004z"></path>
</symbol>
<symbol id="icon-YouTube" viewBox="0 0 32 32">
<path fill="#ae1332" style="fill: var(--color1, #ae1332)" opacity="0.8" d="M24.24 6c-1.36-0.080-4.16-0.16-8.4-0.16h-0.56c-4.080 0-6.8 0.080-8.16 0.24-1.84 0.16-3.12 0.64-3.84 1.28-0.64 0.56-1.12 1.6-1.28 2.96-0.080 0.88-0.16 2.72-0.16 5.52v0.4c0 2.64 0.080 4.48 0.24 5.36 0.24 1.28 0.64 2.24 1.44 2.8 0.8 0.64 2.16 1.040 4.080 1.2 1.36 0.080 4.16 0.16 8.4 0.16h0.56c4.080 0 6.8-0.080 8.16-0.24 1.84-0.16 3.12-0.64 3.84-1.28 0.64-0.56 1.12-1.6 1.28-2.96 0.080-0.88 0.16-2.72 0.16-5.52v-0.4c0-2.64-0.080-4.48-0.24-5.36-0.24-1.28-0.64-2.24-1.44-2.8-0.8-0.64-2.16-1.040-4.080-1.2zM21.12 15.84l-8.8 5.28v-10.56l8.8 5.28z"></path>
</symbol>
<symbol id="icon-X" viewBox="0 0 32 32">

<path fill="none" stroke="#ae1332" style="stroke: var(--color1, #ae1332)" stroke-linejoin="round" stroke-linecap="round" stroke-miterlimit="4" stroke-width="2.6667" d="M24.004 8.001l-16.003 16.003M8.001 8.001l16.003 16.003"></path>
</symbol>
<symbol id="icon-gg_menu-left" viewBox="0 0 32 32">
<path fill="#ae1332" style="fill: var(--color2, #ae1332)" d="M2.668 7.996c0-0.734 0.595-1.327 1.327-1.327h10.684c0.733 0 1.327 0.594 1.327 1.327s-0.594 1.327-1.327 1.327h-10.684c-0.733 0-1.327-0.594-1.327-1.327v0zM2.668 16.006c0-0.734 0.595-1.327 1.327-1.327h24.022c0.733 0 1.327 0.594 1.327 1.327s-0.594 1.327-1.327 1.327h-24.022c-0.733 0-1.327-0.594-1.327-1.327v0zM3.995 22.688c-0.733 0-1.327 0.594-1.327 1.327s0.594 1.327 1.327 1.327h16.019c0.733 0 1.327-0.594 1.327-1.327s-0.594-1.327-1.327-1.327h-16.019z"></path>
</symbol>
<symbol id="icon-pick-1" viewBox="0 0 32 32">
<path fill="#fff" style="fill: var(--color1, #fff)" d="M26.174 1.404c0.585-0.854 1.554-1.407 2.653-1.407 1.77 0 3.206 1.435 3.206 3.206 0 0.672-0.207 1.295-0.559 1.81l0.007-0.011-17.376 25.624c-0.584 0.853-1.553 1.405-2.651 1.405s-2.066-0.552-2.643-1.394l-0.007-0.011-8.253-12.172c-0.346-0.504-0.552-1.127-0.552-1.799 0-1.77 1.435-3.206 3.206-3.206 1.099 0 2.069 0.553 2.646 1.396l0.007 0.011 5.6 8.264 14.718-21.717z"></path>
</symbol>

<symbol id="icon-Vector" viewBox="0 0 27 32">
<path fill="#fff" style="fill: var(--color1, #fff)" d="M24.222 8.222h-4.667v-1.556c0-1.65-0.655-3.233-1.822-4.4s-2.749-1.822-4.4-1.822c-1.65 0-3.233 0.656-4.4 1.822s-1.822 2.75-1.822 4.4v1.556h-4.667c-0.413 0-0.808 0.164-1.1 0.456s-0.456 0.687-0.456 1.1v17.111c0 1.238 0.492 2.425 1.367 3.3s2.062 1.367 3.3 1.367h15.556c1.238 0 2.425-0.492 3.3-1.367s1.367-2.062 1.367-3.3v-17.111c0-0.413-0.164-0.808-0.456-1.1s-0.687-0.456-1.1-0.456zM10.222 6.667c0-0.825 0.328-1.616 0.911-2.2s1.375-0.911 2.2-0.911c0.825 0 1.616 0.328 2.2 0.911s0.911 1.375 0.911 2.2v1.556h-6.222v-1.556zM22.667 26.889c0 0.413-0.164 0.808-0.456 1.1s-0.687 0.456-1.1 0.456h-15.556c-0.413 0-0.808-0.164-1.1-0.456s-0.456-0.687-0.456-1.1v-15.556h3.111v1.556c0 0.413 0.164 0.808 0.456 1.1s0.687 0.456 1.1 0.456 0.808-0.164 1.1-0.456c0.292-0.292 0.456-0.687 0.456-1.1v-1.556h6.222v1.556c0 0.413 0.164 0.808 0.456 1.1s0.687 0.456 1.1 0.456 0.808-0.164 1.1-0.456c0.292-0.292 0.456-0.687 0.456-1.1v-1.556h3.111v15.556z"></path>
</symbol>
<symbol id="icon-x-11" viewBox="0 0 32 32">
<path fill="none" stroke="#fff" style="stroke: var(--color2, #fff)" stroke-linejoin="round" stroke-linecap="round" stroke-miterlimit="4" stroke-width="2.2857" d="M24.002 8.001l-16.002 16.002M8.001 8.001l16.002 16.002"></path>
</symbol>
<symbol id="icon-unchecked-20" viewBox="0 0 32 32">
<path fill="none" stroke="#fff" style="stroke: var(--color1, #fff)" stroke-linejoin="miter" stroke-linecap="butt" stroke-miterlimit="4" stroke-width="2.4" d="M6.4 1.2h19.2c2.872 0 5.2 2.328 5.2 5.2v19.2c0 2.872-2.328 5.2-5.2 5.2h-19.2c-2.872 0-5.2-2.328-5.2-5.2v-19.2c0-2.872 2.328-5.2 5.2-5.2z"></path>
</symbol>
<symbol id="icon-checked-20" viewBox="0 0 32 32">
<path fill="#fff" style="fill: var(--color1, #fff)" d="M20.061 10.162c0.235-0.331 0.616-0.545 1.048-0.545 0.707 0 1.28 0.573 1.28 1.28 0 0.261-0.078 0.504-0.213 0.707l0.003-0.005-6.942 10.24c-0.233 0.341-0.621 0.561-1.059 0.561s-0.826-0.221-1.056-0.557l-0.003-0.004-3.298-4.864c-0.145-0.205-0.232-0.46-0.232-0.735 0-0.707 0.573-1.28 1.28-1.28 0.446 0 0.838 0.228 1.067 0.573l0.003 0.005 2.238 3.301 5.883-8.677z"></path>
<path fill="none" stroke="#fff" style="stroke: var(--color1, #fff)" stroke-linejoin="miter" stroke-linecap="butt" stroke-miterlimit="4" stroke-width="2.4" d="M6.4 1.2h19.2c2.872 0 5.2 2.328 5.2 5.2v19.2c0 2.872-2.328 5.2-5.2 5.2h-19.2c-2.872 0-5.2-2.328-5.2-5.2v-19.2c0-2.872 2.328-5.2 5.2-5.2z"></path>
</symbol>
<symbol id="icon-unchecked-16" viewBox="0 0 32 32">
<path fill="none" stroke="#fff" style="stroke: var(--color1, #fff)" stroke-linejoin="miter" stroke-linecap="butt" stroke-miterlimit="4" stroke-width="3" d="M8 1.5h16c3.59 0 6.5 2.91 6.5 6.5v16c0 3.59-2.91 6.5-6.5 6.5h-16c-3.59 0-6.5-2.91-6.5-6.5v-16c0-3.59 2.91-6.5 6.5-6.5z"></path>
</symbol>
<symbol id="icon-checked-16" viewBox="0 0 32 32">
<path fill="#fff" style="fill: var(--color1, #fff)" d="M19.806 10.526c0.219-0.32 0.582-0.527 0.994-0.527 0.663 0 1.201 0.538 1.201 1.201 0 0.252-0.077 0.485-0.21 0.678l0.003-0.004-6.51 9.6c-0.219 0.319-0.582 0.526-0.993 0.526s-0.774-0.207-0.99-0.522l-0.003-0.004-3.092-4.56c-0.13-0.189-0.207-0.422-0.207-0.674 0-0.663 0.538-1.201 1.201-1.201 0.412 0 0.775 0.207 0.991 0.523l0.003 0.004 2.098 3.096 5.514-8.136z"></path>
<path fill="none" stroke="#fff" style="stroke: var(--color1, #fff)" stroke-linejoin="miter" stroke-linecap="butt" stroke-miterlimit="4" stroke-width="3" d="M8 1.5h16c3.59 0 6.5 2.91 6.5 6.5v16c0 3.59-2.91 6.5-6.5 6.5h-16c-3.59 0-6.5-2.91-6.5-6.5v-16c0-3.59 2.91-6.5 6.5-6.5z"></path>
</symbol>
<symbol id="icon-up" viewBox="0 0 32 32">
<path d="M27.414 12.586l-10-10c-0.781-0.781-2.047-0.781-2.828 0l-10 10c-0.781 0.781-0.781 2.047 0 2.828s2.047 0.781 2.828 0l6.586-6.586v19.172c0 1.105 0.895 2 2 2s2-0.895 2-2v-19.172l6.586 6.586c0.39 0.39 0.902 0.586 1.414 0.586s1.024-0.195 1.414-0.586c0.781-0.781 0.781-2.047 0-2.828z"></path>
</symbol>
</defs>
</svg>